<svg width="100" height="123" viewBox="0 0 100 123" fill="none" xmlns="http://www.w3.org/2000/svg">
<mask id="mask0_3_24" style="mask-type:alpha" maskUnits="userSpaceOnUse" x="0" y="0" width="100" height="123">
<rect y="0.0772705" width="100" height="122.846" fill="#C4C4C4"/>
</mask>
<g mask="url(#mask0_3_24)">
<path d="M12.3694 0.0323486V28.7163H15.113V2.77056H97.212V120.215H15.113V60.1234H12.3694V122.953H99.9556V0.0323486H12.3694Z" fill="#1D1D1B"/>
<path d="M-0.0445557 56.0385L41.0049 10.0575L43.0589 11.883L2.00941 57.864L-0.0445557 56.0385Z" fill="url(#paint0_linear_3_24)"/>
<path d="M56.4473 75.4454L51.125 59.1059L45.8026 75.4454H42.6392L36.1324 55.0958H39.4308L44.4083 71.3156L49.7756 55.0958H52.5193L57.8416 71.3156L62.8191 55.0958H66.1474L59.6407 75.4454H56.4473Z" fill="#1D1D1B"/>
<path d="M68.6062 65.2408C68.6062 59.3454 72.8341 54.5872 78.6512 54.5872C84.8131 54.5872 88.4413 59.3903 88.4413 65.4951V66.2882H71.9795C72.2344 70.1187 74.8881 73.3207 79.2809 73.3207C81.6497 73.3207 83.9735 72.393 85.6077 70.7022L87.1219 72.7671C85.053 74.7871 82.3094 75.9243 79.011 75.9243C72.954 75.9393 68.6062 71.6 68.6062 65.2408ZM78.6062 57.2057C74.2584 57.2057 72.0995 60.8716 71.9345 63.939H85.3079C85.2779 60.9464 83.2539 57.2057 78.6062 57.2057Z" fill="#1D1D1B"/>
<path d="M36.3573 107.795V104.758C34.8431 106.823 32.3543 108.289 29.4757 108.289C24.1534 108.289 20.4053 104.249 20.4053 97.6354C20.4053 91.1116 24.1684 86.9369 29.4757 86.9369C32.2194 86.9369 34.7081 88.2836 36.3573 90.5131V79.6799H39.5207V107.78H36.3573V107.795ZM36.3573 102.229V93.0418C35.2628 91.2762 32.7741 89.75 30.2853 89.75C26.1474 89.75 23.7036 93.1166 23.7036 97.6205C23.7036 102.124 26.1474 105.461 30.2853 105.461C32.7591 105.476 35.2478 104.01 36.3573 102.229Z" fill="#1D1D1B"/>
<path d="M44.6631 97.6055C44.6631 91.7101 48.5461 86.9519 54.753 86.9519C60.9599 86.9519 64.843 91.7101 64.843 97.6055C64.843 103.501 60.9599 108.304 54.753 108.304C48.5461 108.304 44.6631 103.501 44.6631 97.6055ZM61.5147 97.6055C61.5147 93.4757 59.1159 89.7649 54.768 89.7649C50.4202 89.7649 48.0214 93.4757 48.0214 97.6055C48.0214 101.78 50.4202 105.476 54.768 105.476C59.1009 105.476 61.5147 101.765 61.5147 97.6055Z" fill="#1D1D1B"/>
<path d="M83.7486 107.795V104.937C82.1894 106.703 79.5207 108.304 76.4922 108.304C72.2344 108.304 69.9855 106.194 69.9855 101.81V87.4458H73.1639V100.838C73.1639 104.414 74.978 105.476 77.7666 105.476C80.2104 105.476 82.5792 104.04 83.7636 102.394V87.4458H86.927V107.795H83.7486Z" fill="#1D1D1B"/>
<path d="M12.3694 0.0323486V28.7163H15.113V2.77056H97.212V120.215H15.113V60.1234H12.3694V122.953H99.9556V0.0323486H12.3694Z" fill="#1D1D1B"/>
<path d="M-0.0445557 56.0385L41.0049 10.0575L43.0589 11.883L2.00941 57.864L-0.0445557 56.0385Z" fill="url(#paint1_linear_3_24)"/>
<path d="M56.4472 75.4454L51.1248 59.1059L45.8025 75.4454H42.6391L36.1323 55.0958H39.4307L44.4082 71.3156L49.7755 55.0958H52.5191L57.8415 71.3156L62.819 55.0958H66.1473L59.6406 75.4454H56.4472Z" fill="#1D1D1B"/>
<path d="M68.6061 65.2408C68.6061 59.3454 72.834 54.5872 78.6511 54.5872C84.813 54.5872 88.4412 59.3903 88.4412 65.4951V66.2882H71.9794C72.2343 70.1187 74.8879 73.3207 79.2807 73.3207C81.6496 73.3207 83.9734 72.393 85.6076 70.7022L87.1218 72.7671C85.0529 74.7871 82.3092 75.9243 79.0109 75.9243C72.9539 75.9393 68.6061 71.6 68.6061 65.2408ZM78.6061 57.2057C74.2583 57.2057 72.0993 60.8716 71.9344 63.939H85.3077C85.2777 60.9464 83.2538 57.2057 78.6061 57.2057Z" fill="#1D1D1B"/>
<path d="M36.3573 107.795V104.758C34.8431 106.823 32.3543 108.289 29.4757 108.289C24.1534 108.289 20.4053 104.249 20.4053 97.6354C20.4053 91.1116 24.1684 86.9369 29.4757 86.9369C32.2194 86.9369 34.7081 88.2836 36.3573 90.5131V79.6799H39.5207V107.78H36.3573V107.795ZM36.3573 102.229V93.0418C35.2628 91.2762 32.7741 89.75 30.2853 89.75C26.1474 89.75 23.7036 93.1166 23.7036 97.6205C23.7036 102.124 26.1474 105.461 30.2853 105.461C32.7591 105.476 35.2478 104.01 36.3573 102.229Z" fill="#1D1D1B"/>
<path d="M44.6631 97.6055C44.6631 91.7101 48.5461 86.9519 54.753 86.9519C60.9599 86.9519 64.843 91.7101 64.843 97.6055C64.843 103.501 60.9599 108.304 54.753 108.304C48.5461 108.304 44.6631 103.501 44.6631 97.6055ZM61.5147 97.6055C61.5147 93.4757 59.1159 89.7649 54.768 89.7649C50.4202 89.7649 48.0214 93.4757 48.0214 97.6055C48.0214 101.78 50.4202 105.476 54.768 105.476C59.1009 105.476 61.5147 101.765 61.5147 97.6055Z" fill="#1D1D1B"/>
<path d="M83.7486 107.795V104.937C82.1894 106.703 79.5207 108.304 76.4922 108.304C72.2344 108.304 69.9855 106.194 69.9855 101.81V87.4457H73.1639V100.837C73.1639 104.414 74.978 105.476 77.7666 105.476C80.2104 105.476 82.5792 104.04 83.7636 102.394V87.4457H86.927V107.795H83.7486Z" fill="#1D1D1B"/>
</g>
<defs>
<linearGradient id="paint0_linear_3_24" x1="-0.0440759" y1="33.9579" x2="43.0594" y2="33.9579" gradientUnits="userSpaceOnUse">
<stop offset="0.0943215" stop-color="#9965DE"/>
<stop offset="0.9277" stop-color="#5B6DDC"/>
</linearGradient>
<linearGradient id="paint1_linear_3_24" x1="-0.0440759" y1="33.9579" x2="43.0594" y2="33.9579" gradientUnits="userSpaceOnUse">
<stop offset="0.0943215" stop-color="#9965DE"/>
<stop offset="0.9277" stop-color="#5B6DDC"/>
</linearGradient>
</defs>
</svg>
